<?xml version="1.0" standalone="no"?>
<!DOCTYPE svg PUBLIC "-//W3C//DTD SVG 20010904//EN"
 "http://www.w3.org/TR/2001/REC-SVG-20010904/DTD/svg10.dtd">
<svg version="1.0" xmlns="http://www.w3.org/2000/svg"
 width="512.000000pt" height="512.000000pt" viewBox="0 0 512.000000 512.000000"
 preserveAspectRatio="xMidYMid meet">

<g transform="translate(0.000000,512.000000) scale(0.100000,-0.100000)"
fill="#000000" stroke="none">
<path d="M2325 5109 c-498 -46 -991 -248 -1380 -564 -121 -98 -334 -318 -423
-437 -266 -355 -429 -748 -499 -1198 -24 -161 -24 -539 0 -700 74 -476 262
-909 552 -1265 227 -279 519 -512 846 -674 537 -267 1123 -337 1714 -205 261
58 603 204 828 353 389 259 688 599 893 1016 125 255 196 484 241 775 24 161
24 539 0 700 -74 476 -262 909 -552 1265 -227 279 -519 512 -846 674 -431 214
-903 304 -1374 260z m-328 -1825 c15 -11 39 -36 51 -55 21 -30 23 -43 20 -114
-3 -66 -10 -90 -36 -140 -46 -86 -129 -194 -269 -347 -66 -73 -149 -167 -183
-207 l-62 -74 4 -92 c4 -100 21 -141 71 -179 23 -17 43 -21 100 -21 91 1 147
25 222 96 52 49 55 54 55 102 0 173 138 397 290 470 165 79 390 76 513 -8 39
-27 48 -58 20 -69 -9 -4 -71 -11 -137 -16 -103 -8 -128 -13 -182 -40 -136 -67
-226 -227 -211 -376 10 -97 60 -163 141 -185 49 -13 145 -5 185 15 l28 15 -41
44 c-143 148 -119 380 48 462 49 24 65 27 130 23 87 -4 118 -21 155 -87 40
-73 39 -168 -5 -310 -7 -24 -6 -24 36 -17 73 11 107 39 115 92 24 161 144 350
276 435 149 95 335 106 380 22 21 -39 16 -125 -10 -166 -34 -55 -76 -62 -131
-22 -42 31 -88 32 -124 4 -58 -46 -104 -183 -107 -320 -3 -89 16 -129 70 -155
107 -51 186 -21 330 126 105 106 135 122 147 74 20 -80 -32 -201 -125 -294
-104 -103 -236 -159 -376 -160 -125 0 -252 62 -301 147 -15 26 -29 49 -30 51
-1 2 -25 -5 -54 -14 -40 -13 -70 -15 -132 -11 l-81 7 -55 -51 c-108 -98 -217
-135 -379 -127 -128 7 -200 34 -269 103 -28 27 -56 59 -62 69 -9 19 -15 16
-72 -37 -94 -87 -165 -119 -274 -125 -147 -8 -250 26 -335 111 -87 86 -114
193 -100 400 27 396 209 786 426 914 82 48 140 64 225 61 59 -2 83 -8 105 -24z"/>
<path d="M1794 3105 c-73 -30 -172 -201 -219 -375 -14 -52 -25 -101 -25 -108
0 -7 33 31 74 85 41 54 104 135 140 181 70 89 102 157 92 195 -8 32 -25 38
-62 22z"/>
<path d="M2729 2408 c-17 -31 -12 -105 9 -141 10 -18 22 -32 27 -32 25 0 44
139 25 176 -14 25 -47 24 -61 -3z"/>
</g>
</svg>
